# xmcd CD database file
#
# Track frame offsets:
#	150
#	30300
#	70052
#	120917
#	150935
#	183252
#	208390
#	242130
#	273682
#	301972
#	338535
#
# Disc length: 4795 seconds
#
# Revision: 0
# Processed by: cddbd v1.5PL3 Copyright (c) Steve Scherf et al.
# Submitted via: CDex 1.51
#
DISCID=8c12b90b
DTITLE=Art Blakey and The Jazz Messengers - The Essential
DYEAR=1998
DGENRE=Jazz
TTITLE0=I't's Only A Paper Moon
TTITLE1=Dat Dere
TTITLE2=A Night In Tunisia
TTITLE3=So Tired
TTITLE4=Ping Pong
TTITLE5=The Witch Doctor
TTITLE6=The Freedom Rider
TTITLE7=Afrique
TTITLE8=A Little Busy
TTITLE9=Giantis
TTITLE10=Data
EXTD=YEAR: 1998
EXTT0=
EXTT1=
EXTT2=
EXTT3=
EXTT4=
EXTT5=
EXTT6=
EXTT7=
EXTT8=
EXTT9=
EXTT10=
PLAYORDER=
